<svg width="380" height="88" viewBox="0 0 380 88" fill="none" xmlns="http://www.w3.org/2000/svg">
<path d="M120.296 17.3347H127.426V18.8904L110.27 62.5606H100.133L82.8652 18.8904V17.3347H89.995L105.146 56.6712H105.369L120.296 17.3347Z" fill="black"/>
<path d="M152.793 63.6718C145.515 63.6718 140.056 61.5234 136.417 57.2268C132.852 52.8561 131.07 47.3001 131.07 40.5588C130.995 33.7434 132.778 28.1874 136.417 23.8908C140.13 19.5201 145.589 17.2977 152.793 17.2236C159.923 17.2236 165.307 19.3719 168.946 23.6686C172.66 27.8911 174.516 33.5212 174.516 40.5588C174.516 44.9295 173.737 48.8558 172.177 52.3375C170.617 55.8193 168.241 58.5973 165.047 60.6715C161.854 62.6717 157.769 63.6718 152.793 63.6718ZM152.793 57.449C156.655 57.449 159.626 56.5971 161.705 54.8933C163.859 53.1894 165.344 51.0411 166.161 48.4483C167.053 45.7814 167.498 43.0775 167.498 40.3366C167.498 37.5956 167.053 34.8917 166.161 32.2248C165.344 29.5579 163.859 27.3726 161.705 25.6687C159.626 23.9649 156.655 23.113 152.793 23.113C148.931 23.113 145.923 23.9649 143.769 25.6687C141.69 27.3726 140.205 29.5579 139.313 32.2248C138.496 34.8917 138.088 37.5956 138.088 40.3366C138.088 43.0775 138.496 45.7814 139.313 48.4483C140.205 51.0411 141.69 53.1894 143.769 54.8933C145.923 56.5971 148.931 57.449 152.793 57.449Z" fill="black"/>
<path d="M204.042 63.6718C199.808 63.6718 196.021 62.7828 192.679 61.0049C189.337 59.227 186.7 56.6342 184.769 53.2265C182.838 49.8188 181.873 45.7074 181.873 40.8922C182.021 36.151 183.024 32.0026 184.88 28.4467C186.811 24.8909 189.448 22.1499 192.79 20.2238C196.132 18.2237 199.957 17.2236 204.264 17.2236C208.275 17.2236 211.766 17.9644 214.736 19.446C217.707 20.9276 220.084 22.9278 221.866 25.4465C223.648 27.9652 224.762 30.7432 225.208 33.7805H218.635C217.893 30.521 216.259 28.0022 213.734 26.2243C211.283 24.4464 208.201 23.5574 204.487 23.5574C199.734 23.5574 195.946 25.1502 193.124 28.3356C190.376 31.447 188.965 35.5214 188.891 40.5588C188.891 45.6703 190.228 49.7447 192.901 52.782C195.649 55.7452 199.474 57.2268 204.376 57.2268C207.941 57.2268 211.023 56.3378 213.622 54.5599C216.222 52.782 217.893 50.2262 218.635 46.8926H225.208C224.762 50.004 223.611 52.819 221.755 55.3378C219.972 57.8565 217.558 59.8937 214.513 61.4494C211.543 62.931 208.052 63.6718 204.042 63.6718Z" fill="black"/>
<path d="M255.542 63.6718C248.263 63.6718 242.805 61.5234 239.165 57.2268C235.601 52.8561 233.818 47.3001 233.818 40.5588C233.744 33.7434 235.526 28.1874 239.165 23.8908C242.879 19.5201 248.338 17.2977 255.542 17.2236C262.671 17.2236 268.056 19.3719 271.695 23.6686C275.408 27.8911 277.265 33.5212 277.265 40.5588C277.265 44.9295 276.485 48.8558 274.926 52.3375C273.366 55.8193 270.989 58.5973 267.796 60.6715C264.602 62.6717 260.518 63.6718 255.542 63.6718ZM255.542 57.449C259.404 57.449 262.374 56.5971 264.454 54.8933C266.608 53.1894 268.093 51.0411 268.91 48.4483C269.801 45.7814 270.247 43.0775 270.247 40.3366C270.247 37.5956 269.801 34.8917 268.91 32.2248C268.093 29.5579 266.608 27.3726 264.454 25.6687C262.374 23.9649 259.404 23.113 255.542 23.113C251.68 23.113 248.672 23.9649 246.518 25.6687C244.438 27.3726 242.953 29.5579 242.062 32.2248C241.245 34.8917 240.836 37.5956 240.836 40.3366C240.836 43.0775 241.245 45.7814 242.062 48.4483C242.953 51.0411 244.438 53.1894 246.518 54.8933C248.672 56.5971 251.68 57.449 255.542 57.449Z" fill="black"/>
<path d="M304.372 63.6718C299.99 63.6718 296.314 62.6717 293.343 60.6715C290.447 58.6714 288.987 55.9304 287.502 52.4486C286.091 48.8928 285.385 44.9295 285.385 40.5588C285.385 33.8175 286.325 28.2615 289.667 23.8908C293.009 19.5201 297.948 17.3347 304.483 17.3347C307.528 17.3347 310.053 17.8533 312.059 18.8904C314.138 19.8534 315.809 21.0387 317.072 22.4462C318.334 23.8538 319.263 25.1502 319.857 26.3354C320.451 27.5207 320.822 28.2986 320.971 28.669H321.194L321.305 0L328.658 0V62.5606H322.419L321.305 52.5598H321.082C320.934 52.9302 320.525 53.708 319.857 54.8933C319.188 56.0786 318.186 57.3379 316.849 58.6714C315.586 60.0048 313.915 61.1901 311.836 62.2272C309.831 63.1902 307.343 63.6718 304.372 63.6718ZM306.154 57.3379C310.536 57.3379 314.101 55.8563 316.849 52.8931C319.671 49.8558 321.082 45.7444 321.082 40.5588C321.082 35.4473 319.783 31.4099 317.183 28.4467C314.584 25.4094 311.093 23.8908 306.711 23.8908C303.221 23.8908 300.361 24.7057 298.133 26.3354C295.905 27.8911 294.271 29.9283 293.232 32.447C292.192 34.9658 291.672 37.6697 291.672 40.5588C291.672 43.3738 292.155 46.0778 293.12 48.6706C294.086 51.1893 295.608 53.2635 297.688 54.8933C299.767 56.523 302.589 57.3379 306.154 57.3379Z" fill="black"/>
<path d="M359.391 63.6718C354.415 63.6718 350.293 62.5606 347.025 60.3382C343.831 58.0417 341.455 55.1155 339.895 51.5597C338.41 47.9298 337.667 44.1887 337.667 40.3366C337.667 36.114 338.484 32.2618 340.118 28.7801C341.826 25.2242 344.277 22.4092 347.471 20.335C350.738 18.2607 354.637 17.2236 359.168 17.2236C364.961 17.2236 369.788 19.1126 373.65 22.8907C377.512 26.5947 379.592 31.5951 379.889 37.8919C379.963 38.1882 380 38.6327 380 39.2254C380 39.7439 380 40.2254 380 40.6699H344.574C344.574 45.9296 345.837 50.0781 348.362 53.1154C350.961 56.0786 354.6 57.5602 359.279 57.5602C362.77 57.5602 365.741 56.6712 368.191 54.8933C370.717 53.1154 372.276 50.7078 372.87 47.6705H379.889C379.146 52.2634 376.955 56.0786 373.316 59.1158C369.677 62.1531 365.035 63.6718 359.391 63.6718ZM344.797 36.7807H372.648C372.648 35.225 372.202 33.373 371.311 31.2247C370.494 29.0764 369.083 27.2244 367.077 25.6687C365.146 24.039 362.473 23.2241 359.056 23.2241C355.937 23.2241 353.375 23.8908 351.37 25.2242C349.364 26.5577 347.842 28.2615 346.802 30.3358C345.762 32.41 345.094 34.5583 344.797 36.7807Z" fill="black"/>
<path fill-rule="evenodd" clip-rule="evenodd" d="M0 17.3369H69.4566L55.0089 56.9769L22.3327 87.2393L0 17.3369ZM9.11234 23.8213L25.4961 75.2321L49.2991 53.1875L59.9551 23.8213H9.11234Z" fill="black"/>
</svg>
